# xmcd
#
# Track frame offsets: 
#        189
#        30146
#        46549
#        59533
#        84365
#        96751
#        111808
#        134891
#        155223
#        180226
#        197405
#        218034
#        227493
#        244611
#        260692
#        284649
#
# Disc length: 3929 seconds
#
# Revision: 2
# Processed by: cddbd v1.5.2PL0 Copyright (c) Steve Scherf et al.
# Submitted via: ExactAudioCopy v0.99pb4
#
DISCID=d60f5710
DTITLE=Eddie Harris - Exodus To Jazz and Mighty Like A Rose
DYEAR=1961
DGENRE=Jazz
TTITLE0=Exodus
TTITLE1=Alicia
TTITLE2=Gone Home
TTITLE3=A.T.C.
TTITLE4=A.M. Blues
TTITLE5=Little Girl Blue
TTITLE6=Velocity
TTITLE7=W.P.
TTITLE8=My Buddy
TTITLE9=Willow Weep For Me
TTITLE10=Spartacus
TTITLE11=Mighty Like A Rose
TTITLE12=God Bless The Child
TTITLE13=Sally T.
TTITLE14=Fontessa
TTITLE15=There Is No Time
EXTD=YEAR: 1961
EXTT0=
EXTT1=
EXTT2=
EXTT3=
EXTT4=
EXTT5=
EXTT6=
EXTT7=
EXTT8=
EXTT9=
EXTT10=
EXTT11=
EXTT12=
EXTT13=
EXTT14=
EXTT15=
PLAYORDER=
